<svg width="176" height="176" viewBox="0 0 176 176" fill="none" xmlns="http://www.w3.org/2000/svg">
<rect width="176" height="176" fill="#E9E9E9"/>
<path d="M22.4707 65.0377C22.4707 83.7377 22.4707 102.254 22.4707 120.954C22.4707 124.071 23.5782 126.088 26.1625 127.554C45.3597 138.738 64.9262 149.921 84.1234 160.738C85.4156 161.471 86.5231 161.838 87.8152 161.838C87.8152 142.221 87.8152 122.421 87.8152 102.804C66.2183 89.9711 44.4368 77.5044 22.4707 65.0377Z" fill="white"/>
<path d="M88 161.837C89.2922 161.837 90.5843 161.654 91.6918 160.737C110.889 149.554 130.456 138.371 149.653 127.554C152.237 125.904 153.345 124.071 153.345 120.954C153.345 98.5875 153.345 76.5875 153.345 54.2209C153.345 52.9375 153.16 51.4709 152.237 50.5542C130.64 63.0209 109.228 75.3042 87.6309 87.7709C88 112.338 88 137.087 88 161.837Z" fill="#FF9323"/>
<path d="M152.606 50.3709C151.868 49.0875 150.945 48.1709 150.022 47.6209C130.455 36.4375 111.258 25.2542 92.0607 14.0709C89.4764 12.4209 87.2614 12.4209 84.4925 14.0709C64.9261 25.2542 45.7288 36.4375 26.1624 47.6209C24.8702 48.3542 23.9473 49.2709 23.5781 50.3709C45.175 62.8375 66.5874 75.1209 88.1843 87.5875C109.597 75.1392 131.194 62.8375 152.606 50.3709Z" fill="#00B291"/>
<path d="M87.9998 102.437C87.9998 97.304 87.9998 92.354 87.9998 87.2207C66.4029 74.754 44.9906 62.4707 23.3936 50.004C22.6553 51.654 22.4707 52.754 22.4707 54.0374C22.4707 57.5207 22.4707 61.1874 22.4707 64.6707C44.4368 77.504 66.2183 89.9707 87.9998 102.437Z" fill="#D6D6D6"/>
<path d="M141.347 111.237C141.162 111.237 140.793 111.237 140.608 111.237C139.501 111.421 138.393 111.421 137.47 111.421C135.255 111.604 133.225 111.604 131.379 111.421C130.271 111.421 129.533 111.237 128.426 110.871C127.872 110.871 127.318 110.687 127.133 110.687C126.949 110.687 126.58 110.687 126.395 110.504C126.211 110.504 126.58 110.321 126.58 109.954C126.58 109.587 126.764 109.771 126.764 109.404C128.426 106.471 129.718 103.537 131.01 100.604C132.117 98.2206 133.225 95.4706 134.148 93.0873C134.702 91.8039 134.886 90.7039 135.44 89.4206C135.44 89.2373 136.548 86.3039 136.732 85.9373C137.84 85.3873 138.578 84.8373 139.686 84.2873C140.239 84.1039 140.793 83.7373 140.978 83.5539C141.716 83.3706 141.162 82.4539 141.162 81.9039C141.162 80.8039 141.162 79.7039 141.162 78.4206C141.162 77.8706 141.162 77.3206 141.162 76.7706C141.162 76.0373 140.424 76.9539 139.87 77.3206C136.178 79.5206 132.302 81.5373 128.426 83.9206C127.318 84.4706 126.58 85.0206 125.472 85.5706C124.918 85.7539 124.18 86.8539 124.18 85.7539C124.18 85.2039 124.18 84.6539 124.18 84.1039C124.18 83.0039 124.18 81.9039 124.18 80.6206C124.18 80.0706 124.18 79.5206 124.18 78.9706C124.18 78.7873 124.18 78.2373 123.995 78.4206C122.888 78.9706 122.15 79.5206 121.042 80.0706C119.934 80.6206 118.642 80.6206 118.642 82.4539C118.642 83.0039 118.642 83.5539 118.642 84.1039C118.642 85.2039 118.642 86.3039 118.642 87.5873C118.642 88.1373 118.642 88.6873 118.642 89.2373C118.642 89.7873 116.796 90.5206 116.427 90.5206C115.32 91.0706 114.581 91.6206 113.474 92.1706C109.782 94.3706 105.906 96.3873 102.029 98.7706C101.291 99.3206 101.476 102.254 101.476 102.804C101.476 103.537 101.476 104.454 101.476 105.004C101.476 105.187 101.476 105.554 102.029 105.187C102.214 105.004 102.583 105.004 103.137 104.637C103.691 104.454 104.429 103.904 104.983 103.537C105.167 103.354 105.537 103.354 106.09 102.987C106.275 102.804 106.644 101.887 106.829 102.804C107.382 103.904 107.936 105.004 108.49 105.737C110.89 109.404 113.658 112.704 117.35 115.087C114.397 119.304 111.259 123.337 107.752 127.371C106.09 129.204 104.244 131.037 102.583 132.871C101.845 133.604 101.845 134.704 101.845 135.804C101.845 136.904 101.845 138.004 101.845 138.921C101.845 139.654 101.291 142.037 102.399 141.121C103.137 140.387 104.06 139.471 104.983 138.371C106.644 136.537 108.49 134.704 110.151 132.871C113.658 128.837 116.612 124.804 119.565 120.587C119.75 120.037 121.411 116.554 122.519 117.104C123.626 117.287 124.365 117.837 125.472 118.204C127.687 118.754 129.718 119.304 131.933 119.304C134.332 119.487 136.547 119.304 138.947 119.121C139.501 119.121 140.055 118.937 140.793 118.937C141.347 118.937 141.901 118.754 141.901 117.837C141.901 116.554 141.901 114.904 141.901 113.621C141.901 112.887 141.901 112.337 141.901 111.421C141.347 111.806 141.901 111.237 141.347 111.237ZM121.965 109.056C121.78 109.606 120.673 108.506 120.304 108.506C119.75 108.322 119.196 107.956 118.642 107.406C117.535 106.672 116.427 106.122 115.504 105.206C114.397 104.472 113.658 103.556 112.92 102.822C112.366 102.272 112.182 102.089 111.628 101.539C111.074 100.806 111.813 100.439 112.366 100.256C114.581 98.9723 116.981 97.5056 119.012 96.2223C123.626 93.4723 128.056 91.0889 132.671 88.5223C130.825 93.2889 128.426 98.0556 126.026 102.639C124.549 104.637 123.257 107.021 121.965 109.056Z" fill="white"/>
<path d="M22.4707 54.0377C22.4707 76.4044 22.4707 98.4044 22.4707 120.771C22.4707 123.888 23.5782 125.904 26.1625 127.371C45.3597 138.554 64.9262 149.738 84.1234 160.554C86.7077 162.204 88.9228 162.204 91.6916 160.554C110.889 149.371 130.455 138.188 149.653 127.371C152.237 125.721 153.344 123.888 153.344 120.771C153.344 98.4044 153.344 76.4044 153.344 54.0377C153.344 50.921 152.237 48.9044 149.653 47.4377C130.455 36.621 111.073 25.4377 91.8762 14.2543C89.2919 12.6043 87.0769 12.6043 84.308 14.2543C64.9262 25.2544 45.7289 36.4377 26.1625 47.621C23.5782 49.271 22.4707 51.1044 22.4707 54.0377Z" stroke="#3E3E3F" stroke-width="2" stroke-linecap="round" stroke-linejoin="round"/>
<path d="M51.6362 73.8376C51.6362 72.0043 51.0825 70.9043 49.7904 69.8043C48.1291 68.521 46.6523 68.7043 46.6523 70.9043C46.6523 72.7376 47.2061 73.8376 48.4982 74.9376C49.7904 76.221 51.6362 76.221 51.6362 73.8376Z" fill="#6D6E70"/>
<path d="M43.1441 68.8873C43.1441 67.054 42.5903 65.954 41.2982 64.854C39.6369 63.5707 38.1602 63.754 38.1602 65.954C38.1602 67.7873 38.7139 68.8873 40.006 69.9873C41.4828 71.2707 43.1441 71.0873 43.1441 68.8873Z" fill="#6D6E70"/>
<path d="M34.8374 64.121C34.8374 62.2876 34.2837 61.1876 32.9915 60.0876C31.3302 58.8043 29.8535 58.9876 29.8535 61.1876C29.8535 63.021 30.4073 64.121 31.6994 65.221C32.8069 66.5043 34.8374 66.321 34.8374 64.121Z" fill="#6D6E70"/>
<path fill-rule="evenodd" clip-rule="evenodd" d="M70.6318 50.5354C70.2644 51.3946 70.0788 52.3017 70.2893 53.086C70.4998 53.8703 71.0458 54.9137 71.8034 55.8231C72.561 56.7325 73.5017 57.6715 74.6553 58.458C75.4907 59.0048 76.3077 59.5505 77.3263 60.1268C78.3449 60.7031 79.3931 61.0976 80.6234 61.5398C81.6717 61.9342 82.9317 62.1946 84.0578 62.2265C85.184 62.2583 86.1556 62.097 87.2062 61.5549C88.2568 61.0127 88.8062 60.2012 88.7786 59.4465C88.7512 58.6917 88.3886 57.6778 87.6595 56.6048C86.9305 55.5318 86.0381 54.4122 84.9635 53.2447C83.8879 52.0955 82.8417 50.7644 81.7971 49.4151C80.7511 48.084 79.7052 46.753 78.8423 45.4514C77.9795 44.1499 77.2984 42.8962 77.0135 41.5196C76.7275 40.1613 76.7595 39.0429 77.3879 37.8505C78.0163 36.6581 79.1736 35.5897 80.8788 34.6282C82.7969 33.5144 85.0207 32.8416 87.3016 32.7417C89.5824 32.6417 92.0165 32.7532 94.3545 33.2262C96.7111 33.7002 98.9897 34.5369 101.22 35.5544C103.469 36.5729 105.487 37.7244 107.293 39.0283C109.416 40.5902 111.193 42.0576 112.527 43.8286C113.89 45.4178 114.876 47.1125 115.479 48.7289C115.899 50.3157 115.76 51.9604 115.102 53.3346C114.416 54.8724 112.998 56.2739 110.715 57.3104L102.348 51.1438C103.428 50.4197 104.131 49.8197 104.498 48.9604C104.818 48.2818 104.79 47.5271 104.581 46.7245C104.37 45.9403 103.747 45.2411 103.172 44.3795C102.385 43.652 101.578 42.9416 100.474 41.956C99.8201 41.457 98.9845 40.9102 98.1193 40.5453C97.2542 40.1804 96.389 39.8155 95.4757 39.6313C94.5624 39.4471 93.6675 39.2641 92.7244 39.2617C91.7814 39.2594 90.9918 39.4685 90.1243 40.0402C89.2865 40.43 88.9971 40.9267 88.7064 41.4417C88.5989 41.9861 88.6744 42.5601 89.25 43.4217C89.6425 44.2538 90.5533 45.3746 91.5993 46.7056C92.6452 48.0367 94.1615 49.8372 96.1768 51.9436C96.7823 52.6234 97.5397 53.5328 98.4507 54.6535C99.3432 55.7732 100.043 57.0281 100.492 58.433C100.96 59.8391 101.033 61.3497 100.558 62.7535C100.084 64.1572 98.8484 65.5882 96.7483 66.6543C95.0431 67.6158 93.0197 68.3375 90.8738 68.6477C88.7463 68.959 86.3123 68.8475 83.9261 68.5553C81.3866 68.0517 78.8964 67.3491 76.3294 66.0907C73.7339 64.996 71.0616 63.3455 68.2671 61.2835C66.144 59.7215 64.2331 58.0256 62.7166 56.225C61.2003 54.4245 60.2322 52.7309 59.6589 50.9326C59.2688 49.164 59.4259 47.5204 60.1423 45.8007C60.8771 44.0822 62.4783 42.7102 64.9732 41.5396L73.3205 47.7235C71.9149 48.9236 70.9992 49.6761 70.6318 50.5354Z" fill="white"/>
</svg>
