<svg width="122" height="139" viewBox="0 0 122 139" fill="none" xmlns="http://www.w3.org/2000/svg">
<path d="M1.04074 48.5667V99.8648C0.893074 101.129 1.14907 102.408 1.7721 103.518C2.39513 104.628 3.35328 105.513 4.50948 106.045L57.542 136.58C58.5916 137.2 59.7914 137.521 61.0107 137.508V83.1807L1.04074 48.5667Z" fill="white"/>
<path d="M61.0107 137.508C62.2545 137.532 63.4808 137.211 64.5527 136.58L117.512 106.045C118.63 105.518 119.56 104.663 120.18 103.594C120.8 102.525 121.079 101.292 120.981 100.06V38.6979C121.004 37.4696 120.682 36.2595 120.052 35.2047L61.0107 69.4035V137.508Z" fill="#FF9323"/>
<path d="M120.053 35.2047C119.467 34.19 118.624 33.3475 117.61 32.7619L64.5528 2.08075C63.533 1.37694 62.3232 1 61.0841 1C59.845 1 58.6352 1.37694 57.6154 2.08075L4.50954 32.7619C3.49486 33.3475 2.65233 34.19 2.06677 35.2047L61.0108 69.4035L120.053 35.2047Z" fill="#00B291"/>
<path d="M61.0107 83.1807V69.4035L1.96891 35.2047C1.33905 36.2595 1.01747 37.4696 1.04066 38.6979V48.469L61.0107 83.1807Z" fill="#D6D6D6"/>
<path d="M74.1772 22.2092L28.6929 34.423L35.5571 38.3803L46.7694 35.2047L60.0092 42.8506L54.6351 49.3728L61.5481 53.3545L82.6781 27.1192L74.1772 22.2092ZM63.5756 38.82L53.6336 33.104L72.7116 27.8764L63.5756 38.82Z" fill="white"/>
<path d="M109.671 91.1197H108.938C107.936 91.2663 106.959 91.3884 105.958 91.4617C104.056 91.6326 102.143 91.6326 100.242 91.4617C99.3308 91.3748 98.4255 91.2362 97.5303 91.0464L96.3089 90.8266L95.6493 90.6556C95.3073 90.6556 95.8203 90.338 95.8936 90.167L96.1623 89.6785C97.6035 87.0159 98.9226 84.3288 100.168 81.5685C101.17 79.2967 102.123 77.0005 103.002 74.6555C103.442 73.5073 103.857 72.3592 104.248 71.1867C104.554 70.0577 104.988 68.9676 105.543 67.9378L108.23 66.3989L109.573 65.6172C110.184 65.2752 109.915 64.7622 109.915 64.2737V59.6324C109.915 58.8263 109.133 59.8523 108.767 60.0721L98.3364 66.0813L95.7226 67.5958C95.3318 67.8157 94.4768 68.7684 94.4768 67.9134V61.6843C94.4768 61.4401 94.4768 61.0004 94.1592 61.1958L91.4233 62.6859C90.4707 63.2477 89.1271 63.2721 89.1271 64.8844V71.089C89.1271 71.4799 87.4661 72.2615 87.2462 72.3837L84.6569 73.8982L74.3239 79.9074C73.5667 80.3471 73.7865 83.1074 73.7865 83.6693V85.6723C73.7865 85.941 73.7865 86.2098 74.1774 86.0388L75.0568 85.5258L76.8156 84.5242L77.695 84.0113C77.9392 83.8647 78.2324 83.1319 78.5011 83.6693C78.9652 84.622 79.4538 85.5502 79.9912 86.4296C81.9887 89.8653 84.7462 92.7983 88.0523 95.0037C85.3237 98.8543 82.371 102.541 79.2095 106.045C77.695 107.779 76.1316 109.44 74.4949 111.077C74.1676 111.455 73.9279 111.901 73.7927 112.382C73.6576 112.864 73.6305 113.369 73.7133 113.862V116.818C73.7133 117.526 73.127 119.798 74.1285 118.845L76.5713 116.402C78.1591 114.766 79.698 113.08 81.1881 111.37C84.2271 107.816 87.0574 104.089 89.6645 100.207C90.0065 99.7183 91.2768 96.616 92.3272 97.0557C93.2183 97.4232 94.1322 97.7333 95.0631 97.9839C96.9745 98.5284 98.941 98.8561 100.926 98.961C103.029 99.0957 105.14 99.0221 107.228 98.7412L108.865 98.4969C109.451 98.4969 109.915 98.277 109.915 97.5686V91.877C109.817 91.6083 110.184 91.0464 109.671 91.1197ZM91.863 89.1411C91.4966 89.7273 90.5684 88.7258 90.2752 88.5792L88.7363 87.6998C87.7348 87.066 86.7723 86.3726 85.8538 85.6235C84.9988 84.9113 84.1833 84.1529 83.4111 83.3517C83.0202 82.9364 82.6538 82.4967 82.2874 82.057C81.921 81.6173 82.6049 81.1288 83.1179 80.8357L89.2981 77.2692L101.659 70.1363C99.8331 74.5324 97.7616 78.8221 95.4539 82.9853C94.3139 85.0861 93.117 87.138 91.863 89.1411Z" fill="white"/>
<path d="M1.04056 38.6979V99.9626C0.914313 101.211 1.1806 102.468 1.80234 103.558C2.42408 104.649 3.37031 105.518 4.50929 106.045L57.5418 136.58C58.5616 137.283 59.7714 137.66 61.0106 137.66C62.2497 137.66 63.4595 137.283 64.4793 136.58L117.512 106.045C118.63 105.518 119.56 104.663 120.18 103.594C120.799 102.525 121.079 101.292 120.981 100.06V38.6979C121.069 37.474 120.784 36.2522 120.165 35.1928C119.546 34.1334 118.621 33.2861 117.512 32.7619L64.5526 2.08075C63.5327 1.37694 62.323 1 61.0838 1C59.8447 1 58.6349 1.37694 57.6151 2.08075L4.50929 32.7619C3.39553 33.2805 2.46662 34.1268 1.84676 35.1875C1.2269 36.2483 0.945633 37.473 1.04056 38.6979Z" stroke="#3E3E3F" stroke-width="2" stroke-linecap="round" stroke-linejoin="round"/>
<path d="M27.5937 56.8232C27.6152 56.1042 27.462 55.3908 27.1471 54.7441C26.8323 54.0974 26.3652 53.5367 25.7861 53.1102C24.4181 51.9132 22.8303 52.0842 22.8303 54.0629C22.8129 54.7812 22.9679 55.4932 23.2825 56.1393C23.597 56.7853 24.0618 57.3465 24.638 57.7759C26.0059 58.9484 27.5937 58.8018 27.5937 56.8232Z" fill="#6D6E70"/>
<path d="M19.899 52.3041C19.9104 51.6022 19.7573 50.9074 19.4518 50.2754C19.1464 49.6433 18.6972 49.0916 18.1402 48.6644C16.7722 47.4918 15.1844 47.6384 15.1844 49.6171C15.167 50.3354 15.3221 51.0474 15.6366 51.6935C15.9511 52.3395 16.4159 52.9007 16.9921 53.3301C18.3112 54.5026 19.899 54.356 19.899 52.3041Z" fill="#6D6E70"/>
<path d="M12.2041 47.9315C12.2215 47.2132 12.0665 46.5012 11.752 45.8551C11.4374 45.2091 10.9726 44.6479 10.3965 44.2185C9.02851 43.046 7.44071 43.217 7.44071 45.1712C7.42138 45.8933 7.57543 46.6095 7.88994 47.2598C8.20446 47.9101 8.67028 48.4755 9.24836 48.9086C10.6163 50.0812 12.2041 49.8613 12.2041 47.9315Z" fill="#6D6E70"/>
</svg>
