<?xml version="1.0" encoding="UTF-8"?>
<svg width="333px" height="81px" viewBox="0 0 333 81" version="1.1" xmlns="http://www.w3.org/2000/svg" xmlns:xlink="http://www.w3.org/1999/xlink">
    <!-- Generator: Sketch 43.2 (39069) - http://www.bohemiancoding.com/sketch -->
    <title>Green-black-sitetran-no-background</title>
    <desc>Created with Sketch.</desc>
    <defs></defs>
    <g id="Page-1" stroke="none" stroke-width="1" fill="none" fill-rule="evenodd">
        <g id="Green-black-sitetran-no-background">
            <polygon id="Fill-8" fill="#29B191" points="0.016 80.521 162.064 80.521 162.064 0.777 0.016 0.777"></polygon>
            <path d="M24.1127,54.8899 C24.8787,56.3659 25.8967,57.5599 27.1657,58.4739 C28.4337,59.3899 29.9237,60.0669 31.6357,60.5099 C33.3457,60.9519 35.1157,61.1739 36.9457,61.1739 C38.1847,61.1739 39.5117,61.0709 40.9277,60.8639 C42.3437,60.6579 43.6717,60.2599 44.9107,59.6689 C46.1497,59.0799 47.1817,58.2679 48.0087,57.2349 C48.8337,56.2039 49.2477,54.8899 49.2477,53.2969 C49.2477,51.5859 48.7017,50.1989 47.6097,49.1369 C46.5177,48.0749 45.0877,47.1899 43.3177,46.4819 C41.5477,45.7739 39.5417,45.1549 37.2997,44.6239 C35.0567,44.0929 32.7857,43.5039 30.4847,42.8539 C28.1237,42.2649 25.8227,41.5409 23.5817,40.6849 C21.3387,39.8309 19.3337,38.7239 17.5637,37.3669 C15.7937,36.0099 14.3617,34.3129 13.2717,32.2779 C12.1787,30.2419 11.6337,27.7789 11.6337,24.8879 C11.6337,21.6439 12.3267,18.8249 13.7137,16.4359 C15.0997,14.0459 16.9137,12.0549 19.1567,10.4619 C21.3977,8.8689 23.9357,7.6889 26.7677,6.9219 C29.5997,6.1559 32.4317,5.7709 35.2637,5.7709 C38.5677,5.7709 41.7387,6.1399 44.7777,6.8769 C47.8157,7.6159 50.5157,8.8109 52.8757,10.4619 C55.2347,12.1139 57.1087,14.2229 58.4957,16.7899 C59.8817,19.3559 60.5757,22.4689 60.5757,26.1269 L47.1227,26.1269 C47.0047,24.2389 46.6067,22.6749 45.9287,21.4359 C45.2497,20.1969 44.3497,19.2239 43.2297,18.5159 C42.1077,17.8069 40.8247,17.3069 39.3797,17.0109 C37.9327,16.7159 36.3547,16.5679 34.6447,16.5679 C33.5227,16.5679 32.4017,16.6869 31.2817,16.9219 C30.1597,17.1589 29.1417,17.5719 28.2277,18.1619 C27.3127,18.7519 26.5607,19.4889 25.9707,20.3739 C25.3807,21.2589 25.0867,22.3809 25.0867,23.7369 C25.0867,24.9759 25.3217,25.9799 25.7937,26.7459 C26.2657,27.5139 27.1947,28.2219 28.5817,28.8699 C29.9677,29.5199 31.8857,30.1689 34.3347,30.8169 C36.7827,31.4669 39.9837,32.2929 43.9377,33.2949 C45.1167,33.5319 46.7547,33.9589 48.8497,34.5789 C50.9427,35.1979 53.0227,36.1869 55.0887,37.5439 C57.1527,38.9019 58.9387,40.7159 60.4427,42.9859 C61.9477,45.2579 62.6997,48.1639 62.6997,51.7039 C62.6997,54.5949 62.1387,57.2799 61.0177,59.7579 C59.8967,62.2359 58.2307,64.3749 56.0177,66.1739 C53.8047,67.9749 51.0617,69.3749 47.7867,70.3779 C44.5127,71.3799 40.7207,71.8829 36.4147,71.8829 C32.9327,71.8829 29.5557,71.4539 26.2807,70.5989 C23.0067,69.7449 20.1147,68.4019 17.6077,66.5719 C15.0997,64.7439 13.1077,62.4129 11.6337,59.5809 C10.1587,56.7489 9.4507,53.3849 9.5097,49.4909 L22.9617,49.4909 C22.9617,51.6149 23.3447,53.4159 24.1127,54.8899" id="Fill-9" fill="#FFFFFF"></path>
            <path d="M78.031,70.466 L65.464,70.466 L65.464,24.71 L78.031,24.71 L78.031,70.466 Z M65.464,7.276 L78.031,7.276 L78.031,17.631 L65.464,17.631 L65.464,7.276 Z" id="Fill-10" fill="#FFFFFF"></path>
            <path d="M109.5526,24.7105 L109.5526,33.1185 L100.3486,33.1185 L100.3486,55.7745 C100.3486,57.8995 100.7026,59.3145 101.4106,60.0235 C102.1186,60.7315 103.5346,61.0855 105.6586,61.0855 C106.3666,61.0855 107.0446,61.0565 107.6946,60.9965 C108.3426,60.9385 108.9626,60.8505 109.5526,60.7315 L109.5526,70.4665 C108.4906,70.6435 107.3096,70.7605 106.0126,70.8205 C104.7146,70.8785 103.4466,70.9085 102.2076,70.9085 C100.2596,70.9085 98.4156,70.7765 96.6756,70.5105 C94.9346,70.2455 93.4006,69.7295 92.0736,68.9615 C90.7456,68.1955 89.6976,67.1035 88.9316,65.6875 C88.1646,64.2715 87.7816,62.4125 87.7816,60.1115 L87.7816,33.1185 L80.1696,33.1185 L80.1696,24.7105 L87.7816,24.7105 L87.7816,10.9925 L100.3486,10.9925 L100.3486,24.7105 L109.5526,24.7105 Z" id="Fill-11" fill="#FFFFFF"></path>
            <path d="M137.9687,35.4193 C136.4647,33.7683 134.1767,32.9413 131.1097,32.9413 C129.1037,32.9413 127.4367,33.2813 126.1097,33.9593 C124.7817,34.6383 123.7197,35.4793 122.9237,36.4813 C122.1267,37.4853 121.5657,38.5473 121.2417,39.6673 C120.9167,40.7893 120.7247,41.7913 120.6667,42.6763 L141.1107,42.6763 C140.5197,39.4903 139.4737,37.0723 137.9687,35.4193 M123.7637,59.4923 C125.6517,61.3213 128.3657,62.2353 131.9067,62.2353 C134.4427,62.2353 136.6257,61.6023 138.4557,60.3333 C140.2837,59.0643 141.4057,57.7223 141.8187,56.3063 L152.8817,56.3063 C151.1117,61.7933 148.3967,65.7173 144.7397,68.0763 C141.0797,70.4373 136.6547,71.6173 131.4637,71.6173 C127.8647,71.6173 124.6187,71.0413 121.7287,69.8913 C118.8377,68.7403 116.3877,67.1033 114.3827,64.9793 C112.3767,62.8553 110.8277,60.3193 109.7367,57.3683 C108.6437,54.4183 108.0997,51.1723 108.0997,47.6323 C108.0997,44.2113 108.6597,41.0253 109.7807,38.0743 C110.9007,35.1243 112.4937,32.5733 114.5597,30.4193 C116.6247,28.2663 119.0877,26.5693 121.9497,25.3303 C124.8107,24.0913 127.9817,23.4713 131.4637,23.4713 C135.3577,23.4713 138.7497,24.2243 141.6417,25.7283 C144.5317,27.2333 146.9077,29.2543 148.7667,31.7903 C150.6247,34.3283 151.9657,37.2193 152.7927,40.4643 C153.6187,43.7093 153.9127,47.1013 153.6777,50.6423 L120.6667,50.6423 C120.8437,54.7133 121.8747,57.6643 123.7637,59.4923" id="Fill-12" fill="#FFFFFF"></path>
            <path d="M240.051,45.5966 C237.219,45.5966 235.537,43.9146 235.537,41.9676 C235.537,40.0206 236.688,39.6666 236.688,38.2506 C236.688,36.7456 236.157,35.8606 234.298,35.8606 C231.997,35.8606 229.254,39.4896 223.589,51.3496 L217.571,70.4666 L208.189,70.4666 L218.19,38.8696 C218.987,36.3916 218.102,34.7106 216.332,34.7106 C214.562,34.7106 212.438,36.3916 210.579,40.4636 L209.605,40.0206 C212.084,34.5336 216.42,31.9666 220.137,31.9666 C225.271,31.9666 228.457,36.1266 225.448,45.3306 C229.785,35.9496 233.59,31.9666 237.838,31.9666 C241.909,31.9666 244.919,34.9756 244.919,39.2246 C244.919,42.4106 242.795,45.5966 240.051,45.5966" id="Fill-13" fill="#404041"></path>
            <path d="M267.5126,33.0288 C265.9196,33.0288 264.5916,33.3828 262.4676,34.9758 C256.0066,39.8438 251.4926,56.1288 251.4926,63.5628 C251.4926,68.1648 253.0866,69.7578 255.8296,69.7578 C260.5206,69.7578 264.5916,64.0058 267.9546,55.3318 L273.2656,38.9588 C273.3536,35.3298 271.2296,33.0288 267.5126,33.0288 L267.5126,33.0288 Z M274.2386,65.6868 C273.7076,67.1028 274.3276,68.3428 276.0086,68.3428 C278.7526,68.3428 281.5846,66.1298 283.9746,61.7048 L285.0366,62.1468 C282.1156,67.9878 276.6286,71.2628 272.8226,71.2628 C267.6016,71.2628 264.8576,66.8378 266.6276,60.9078 C263.7066,67.6338 259.3696,71.2628 254.5906,71.2628 C245.9176,71.2628 242.9076,64.0938 242.9076,57.1018 C242.9076,45.7738 253.8826,32.0548 267.5126,32.0548 C270.6986,32.0548 273.4426,33.5598 273.9736,36.7458 L275.4776,32.8518 L284.7706,31.9668 L274.2386,65.6868 Z" id="Fill-14" fill="#404041"></path>
            <path d="M320.2439,71.2628 C315.5529,71.2628 312.6329,68.3428 312.6329,64.7138 C312.6329,57.5448 320.1549,48.1628 320.1549,40.1088 C320.1549,37.9848 318.8279,36.3918 316.7039,36.3918 C312.8979,36.3918 309.4459,39.6668 303.6049,49.9328 L297.1439,70.4668 L287.7629,70.4668 L297.8519,38.8698 C298.6489,36.3918 297.6749,34.7108 295.9929,34.7108 C294.2239,34.7108 292.0999,36.2148 290.1529,40.4628 L289.0899,40.0208 C291.5679,34.5338 295.9929,31.9668 299.7109,31.9668 C304.9329,31.9668 308.2069,36.3038 304.8439,45.8618 C310.4199,36.1268 316.8809,31.9668 321.7479,31.9668 C326.2619,31.9668 329.0059,34.9758 329.0059,40.0208 C329.0059,48.4288 321.0409,59.6688 321.0409,64.9788 C321.0409,67.0148 321.8369,68.3428 323.7839,68.3428 C326.4389,68.3428 329.0059,66.5718 331.7499,61.7928 L332.6349,62.2358 C329.6259,68.3428 324.2269,71.2628 320.2439,71.2628" id="Fill-15" fill="#404041"></path>
            <path d="M229.4233,7.7165 L175.8773,7.7165 C175.6123,7.7165 175.5243,7.8055 175.5243,7.9825 L169.1513,28.0725 C169.1513,28.2495 170.2133,28.2495 170.3023,28.0725 C173.3993,18.2485 181.5423,8.7785 194.0213,8.7785 L195.3493,8.7785 C195.7023,8.7785 195.8793,8.8675 195.7913,9.0445 L176.4353,70.4665 L188.8283,70.4665 L208.0933,9.0445 C208.1823,8.8675 208.3593,8.7785 208.8013,8.7785 L210.0403,8.7785 C223.1393,8.7785 225.1753,18.6025 221.9003,28.8695 C221.9003,29.0465 222.9623,29.0465 222.9623,28.8695 L229.6003,7.9825 C229.6003,7.8055 229.6003,7.7165 229.4233,7.7165" id="Fill-16" fill="#404041"></path>
        </g>
    </g>
</svg>